<svg id="Layer_1" data-name="Layer 1" xmlns="http://www.w3.org/2000/svg" viewBox="0 0 322.42 322.42"><defs><style>.cls-1{fill:none;stroke:#ffcf0e;stroke-miterlimit:10;stroke-width:5.5px;}.cls-2{fill:#3a3a3c;}</style></defs><title>CODO LOGO</title><path class="cls-1" d="M160.57,39a19.41,19.41,0,0,0-2.1,2c-7.78,7.7-14.2,16.23-17.25,26.82a25,25,0,0,0,.14,15.56A20.7,20.7,0,0,0,154.08,96a20.18,20.18,0,0,0,16.6-1.31c9-4.59,13.12-15,11.16-24.64-2.18-10.7-8.36-19.2-16.1-26.69C164.33,42,160.82,39.17,160.57,39Z"/><path class="cls-1" d="M107.85,61.37a19.41,19.41,0,0,0-.1,2.87c-.06,10.94,1.43,21.52,6.77,31.16a25,25,0,0,0,11.1,10.91,20.7,20.7,0,0,0,18,0,20.18,20.18,0,0,0,10.81-12.66c3.09-9.58-1.33-19.89-9.53-25.31-9.11-6-19.49-7.66-30.26-7.49C112.63,60.84,108.14,61.32,107.85,61.37Z"/><path class="cls-1" d="M86.38,114.47a19.41,19.41,0,0,0,2,2.1c7.7,7.78,16.23,14.2,26.82,17.25a25,25,0,0,0,15.56-.14A20.7,20.7,0,0,0,143.4,121a20.18,20.18,0,0,0-1.31-16.6c-4.59-9-15-13.12-24.64-11.16-10.7,2.18-19.2,8.36-26.69,16.1C89.39,110.72,86.55,114.23,86.38,114.47Z"/><path class="cls-1" d="M108.75,167.2a19.41,19.41,0,0,0,2.87.1c10.94.06,21.52-1.43,31.16-6.77a25,25,0,0,0,10.91-11.1,20.7,20.7,0,0,0,0-18A20.18,20.18,0,0,0,141,120.66c-9.58-3.09-19.89,1.33-25.31,9.53-6,9.11-7.66,19.49-7.49,30.26C108.22,162.41,108.7,166.91,108.75,167.2Z"/><path class="cls-1" d="M161.85,188.67a19.41,19.41,0,0,0,2.1-2c7.78-7.7,14.2-16.23,17.25-26.82a25,25,0,0,0-.14-15.56,20.7,20.7,0,0,0-12.72-12.67,20.18,20.18,0,0,0-16.6,1.31c-9,4.59-13.12,15-11.16,24.64,2.18,10.7,8.36,19.2,16.1,26.69C158.09,185.65,161.61,188.49,161.85,188.67Z"/><path class="cls-1" d="M214.58,166.3a19.41,19.41,0,0,0,.1-2.87c.06-10.94-1.43-21.52-6.77-31.16a25,25,0,0,0-11.1-10.91,20.7,20.7,0,0,0-18,0A20.18,20.18,0,0,0,168,134.05c-3.09,9.58,1.33,19.89,9.53,25.31,9.11,6,19.49,7.66,30.26,7.49C209.79,166.82,214.29,166.35,214.58,166.3Z"/><path class="cls-1" d="M236,113.19a19.41,19.41,0,0,0-2-2.1c-7.7-7.78-16.23-14.2-26.82-17.25A25,25,0,0,0,191.7,94,20.7,20.7,0,0,0,179,106.7a20.18,20.18,0,0,0,1.31,16.6c4.59,9,15,13.12,24.64,11.16,10.7-2.18,19.2-8.36,26.69-16.1C233,117,235.87,113.44,236,113.19Z"/><path class="cls-1" d="M213.68,60.47a19.41,19.41,0,0,0-2.87-.1c-10.94-.06-21.52,1.43-31.16,6.77a25,25,0,0,0-10.91,11.1,20.7,20.7,0,0,0,0,18A20.18,20.18,0,0,0,181.43,107c9.58,3.09,19.89-1.33,25.31-9.53,6-9.11,7.66-19.49,7.49-30.26C214.2,65.25,213.72,60.76,213.68,60.47Z"/><path class="cls-2" d="M111.37,229.19c-1.15-13.83,6.48-19.42,18.91-18.55,2.83.2,5.76,0,8.47.72,5.88,1.51,9.69,6.64,9.95,12.86.12,3,.07,5.92,0,8.88-.12,8.28-5.11,13.78-13.35,14.46a71.75,71.75,0,0,1-10.58.06c-8.23-.55-13.28-6.05-13.43-14.33C111.35,231.93,111.38,230.56,111.37,229.19Zm27.72-.26h0c0-1.25.05-2.51,0-3.76-.19-3.79-2-6.23-5.3-6.43-8-.47-10.78-.47-12.45,4.07a16.19,16.19,0,0,0-.53,5.4c-.06,10.62,1.13,11.76,11.74,11.45,3.94-.11,6.11-2,6.49-6C139.22,232.13,139.1,230.52,139.1,228.93Z"/><path class="cls-2" d="M160.53,211.12a5.63,5.63,0,0,1,5.64,5.94c0,3.44-2.35,5.6-5.91,5.53a5.35,5.35,0,0,1-5.45-5.66A5.56,5.56,0,0,1,160.53,211.12Z"/><path class="cls-2" d="M160.49,246.5c-3.43,0-5.68-2.28-5.66-5.84a5.32,5.32,0,0,1,5.63-5.54,5.69,5.69,0,1,1,0,11.38Z"/><path class="cls-2" d="M199.38,246.82h6.81l1,0V197.29h-8.38a3.77,3.77,0,0,0-.13.53V211.4s0,2.19-.32,2.39C193,210,188,210.37,183,210.92a12.54,12.54,0,0,0-11.5,11.24,74.94,74.94,0,0,0,0,14.28A11.16,11.16,0,0,0,180.7,247c5.89,1.26,12,2.18,16.85-3.14.22-.25.79-.18,1.25-.27Zm-3.53-9.45c-2.08,2.19-8,3.3-11.25,1.93s-4.27-4.18-4-7.56c.06-.79,0-4.9,0-6.15.21-4.11,2.49-6.59,6.57-6.88s8.1-.64,10.29,4C199.34,226.75,198.56,234.52,195.85,237.38Z"/><path class="cls-2" d="M251.79,223.58a13.21,13.21,0,0,0-12.46-12.7c-1.92-.16-3.85-.24-5.78-.25h0c-1.93,0-3.86.08-5.78.25a13.21,13.21,0,0,0-12.46,12.7,93.41,93.41,0,0,0,0,11.26c.34,6,3.65,10.91,9.56,11.78a58.85,58.85,0,0,0,8.72.61h0a58.85,58.85,0,0,0,8.72-.61c5.91-.87,9.21-5.77,9.56-11.78A93.41,93.41,0,0,0,251.79,223.58ZM242.49,233c-.18,3.41-2.14,6-4.94,6.58a16.32,16.32,0,0,1-8,0c-2.8-.59-4.75-3.16-4.94-6.58-.07-1.36-.06-7.07.11-8.52.41-3.55,2.5-5.49,6-5.79a2.24,2.24,0,0,1,.34,0,19.63,19.63,0,0,0,2.46,0,19.63,19.63,0,0,0,2.46,0,2.24,2.24,0,0,1,.34,0c3.53.3,5.63,2.24,6,5.79C242.55,225.93,242.57,231.64,242.49,233Z"/><path class="cls-2" d="M79.91,230.43q0-2,.1-4c.16-3.26,1.56-5.7,5-6.41,5.68-1.16,9.4,0,11.21,3.25.43.78.76,1.94.82,1.95,2.39.21,6.08.08,8.39.08,1.15-6-4.13-12.6-11-13.15a69,69,0,0,0-11.59,0c-7.16.64-12,6-12.34,13.18q-.1,2.53-.1,5.07Z"/><path class="cls-2" d="M79.91,229c0,1.33,0,4.07.1,5.4.16,3.26,1.56,5.7,5,6.41,5.68,1.16,9.4,0,11.21-3.25.43-.78.76-1.94.82-1.95,2.39-.21,6.08-.08,8.39-.08,1.15,6-4.13,12.6-11,13.15a69,69,0,0,1-11.59,0c-7.16-.64-12-6-12.34-13.18-.07-1.69-.1-4.8-.1-6.49Z"/><path class="cls-2" d="M85.42,273.66v6.43h-1l-.31-1.64a4.36,4.36,0,0,1-3.74,1.84c-3.12,0-5-2.37-5-6.26,0-4.06,2-6.52,5.33-6.52,2.28,0,3.89,1.31,4.53,3.78l-1.66.42c-.44-1.59-1.22-2.76-3-2.76-2.17,0-3.38,2-3.38,5.08s1.21,4.84,3.38,4.84a3.12,3.12,0,0,0,3.29-3.21v-.58H80.54v-1.41Z"/><path class="cls-2" d="M88.34,267.7h5a3.42,3.42,0,0,1,3.71,3.6,3.29,3.29,0,0,1-2,3.42l2.26,5.37H95.48l-2.1-5.1H90.1v5.1H88.34Zm4.79,5.94a2,2,0,0,0,2.27-2.26,2.09,2.09,0,0,0-2.27-2.27h-3v4.53Z"/><path class="cls-2" d="M99.14,274c0-4,2-6.46,5.22-6.46s5.15,2.45,5.15,6.48-2,6.28-5.15,6.3S99.14,277.89,99.14,274Zm8.49,0c0-3.11-1.19-5-3.31-5s-3.31,1.9-3.31,5,1.17,4.84,3.31,4.84S107.63,277,107.63,273.95Z"/><path class="cls-2" d="M110.88,267.7h1.9l2.06,9.19h.05l2.69-9.19h1.55l2.72,9.19h.07l2-9.19h1.64l-2.92,12.38h-1.57l-2.92-9.84h-.07l-2.9,9.84h-1.35Z"/><path class="cls-2" d="M127.89,267.7h1.75v12.38h-1.75Z"/><path class="cls-2" d="M132.93,267.7h2l5.88,9.46.07,0-.07-2.59V267.7h1.44v12.38h-1.64L134.37,270l-.07,0,0,.22c.07.93.05,1.81.05,2.74v7.12h-1.44Z"/><path class="cls-2" d="M155,273.66v6.43h-1l-.31-1.64a4.36,4.36,0,0,1-3.74,1.84c-3.12,0-5-2.37-5-6.26,0-4.06,2-6.52,5.33-6.52,2.28,0,3.89,1.31,4.53,3.78l-1.66.42c-.44-1.59-1.22-2.76-3-2.76-2.17,0-3.38,2-3.38,5.08s1.21,4.84,3.38,4.84a3.12,3.12,0,0,0,3.29-3.21v-.58h-3.29v-1.41Z"/><path class="cls-2" d="M164.25,269.14h-3.42V267.7h8.57v1.44H166v10.94h-1.75Z"/><path class="cls-2" d="M170.59,274c0-4,2-6.46,5.22-6.46S181,269.95,181,274s-2,6.28-5.15,6.3S170.59,277.89,170.59,274Zm8.49,0c0-3.11-1.19-5-3.31-5s-3.31,1.9-3.31,5,1.17,4.84,3.31,4.84S179.08,277,179.08,273.95Z"/><path class="cls-2" d="M193.09,273.66v6.43h-1l-.31-1.64a4.36,4.36,0,0,1-3.74,1.84c-3.12,0-5-2.37-5-6.26,0-4.06,2-6.52,5.33-6.52,2.28,0,3.89,1.31,4.53,3.78l-1.66.42c-.44-1.59-1.22-2.76-3-2.76-2.17,0-3.38,2-3.38,5.08s1.21,4.84,3.38,4.84a3.12,3.12,0,0,0,3.29-3.21v-.58h-3.29v-1.41Z"/><path class="cls-2" d="M196,267.7h7.32v1.44h-5.57v3.91H202v1.39h-4.18v4.2h5.59v1.44H196Z"/><path class="cls-2" d="M208.33,269.14h-3.42V267.7h8.57v1.44h-3.4v10.94h-1.75Z"/><path class="cls-2" d="M215.76,267.7h1.75V273H223V267.7h1.75v12.38H223v-5.57h-5.52v5.57h-1.75Z"/><path class="cls-2" d="M228.07,267.7h7.32v1.44h-5.57v3.91H234v1.39h-4.18v4.2h5.59v1.44h-7.34Z"/><path class="cls-2" d="M238,267.7h5a3.42,3.42,0,0,1,3.71,3.6,3.29,3.29,0,0,1-2,3.42l2.26,5.37h-1.83L243,275h-3.29v5.1H238Zm4.79,5.94a2,2,0,0,0,2.27-2.26,2.09,2.09,0,0,0-2.27-2.27h-3v4.53Z"/></svg>