<svg id="Layer_1" data-name="Layer 1" xmlns="http://www.w3.org/2000/svg" viewBox="0 0 214.5 211"><defs><style>.cls-1{fill:none;stroke:#ffcf0e;stroke-miterlimit:10;stroke-width:5.5px;}</style></defs><title>CODO LOGO</title><path class="cls-1" d="M107.15,33.29a19.41,19.41,0,0,0-2.1,2c-7.78,7.7-14.2,16.23-17.25,26.82a25,25,0,0,0,.14,15.56,20.7,20.7,0,0,0,12.72,12.67A20.18,20.18,0,0,0,117.26,89c9-4.59,13.12-15,11.16-24.64-2.18-10.7-8.36-19.2-16.1-26.69C110.91,36.3,107.39,33.46,107.15,33.29Z"/><path class="cls-1" d="M54.42,55.66a19.41,19.41,0,0,0-.1,2.87c-.06,10.94,1.43,21.52,6.77,31.16a25,25,0,0,0,11.1,10.91,20.7,20.7,0,0,0,18,0A20.18,20.18,0,0,0,101,87.9C104,78.32,99.63,68,91.43,62.59c-9.11-6-19.49-7.66-30.26-7.49C59.21,55.13,54.71,55.61,54.42,55.66Z"/><path class="cls-1" d="M33,108.76a19.41,19.41,0,0,0,2,2.1c7.7,7.78,16.23,14.2,26.82,17.25A25,25,0,0,0,77.3,128,20.7,20.7,0,0,0,90,115.25a20.18,20.18,0,0,0-1.31-16.6c-4.59-9-15-13.12-24.64-11.16-10.7,2.18-19.2,8.36-26.69,16.1C36,105,33.13,108.52,33,108.76Z"/><path class="cls-1" d="M55.32,161.49a19.41,19.41,0,0,0,2.87.1c10.94.06,21.52-1.43,31.16-6.77a25,25,0,0,0,10.91-11.1,20.7,20.7,0,0,0,0-18,20.18,20.18,0,0,0-12.66-10.81c-9.58-3.09-19.89,1.33-25.31,9.53-6,9.11-7.66,19.49-7.49,30.26C54.8,156.7,55.28,161.19,55.32,161.49Z"/><path class="cls-1" d="M108.43,183a19.41,19.41,0,0,0,2.1-2c7.78-7.7,14.2-16.23,17.25-26.82a25,25,0,0,0-.14-15.56,20.7,20.7,0,0,0-12.72-12.67,20.18,20.18,0,0,0-16.6,1.31c-9,4.59-13.12,15-11.16,24.64,2.18,10.7,8.36,19.2,16.1,26.69C104.67,179.94,108.18,182.78,108.43,183Z"/><path class="cls-1" d="M161.15,160.58a19.41,19.41,0,0,0,.1-2.87c.06-10.94-1.43-21.52-6.77-31.16a25,25,0,0,0-11.1-10.91,20.7,20.7,0,0,0-18,0,20.18,20.18,0,0,0-10.81,12.66c-3.09,9.58,1.33,19.89,9.53,25.31,9.11,6,19.49,7.66,30.26,7.49C156.37,161.11,160.86,160.63,161.15,160.58Z"/><path class="cls-1" d="M182.62,107.48a19.41,19.41,0,0,0-2-2.1c-7.7-7.78-16.23-14.2-26.82-17.25a25,25,0,0,0-15.56.14A20.7,20.7,0,0,0,125.6,101a20.18,20.18,0,0,0,1.31,16.6c4.59,9,15,13.12,24.64,11.16,10.7-2.18,19.2-8.36,26.69-16.1C179.61,111.24,182.45,107.72,182.62,107.48Z"/><path class="cls-1" d="M160.25,54.75a19.41,19.41,0,0,0-2.87-.1c-10.94-.06-21.52,1.43-31.16,6.77a25,25,0,0,0-10.91,11.1,20.7,20.7,0,0,0,0,18A20.18,20.18,0,0,0,128,101.29c9.58,3.09,19.89-1.33,25.31-9.53,6-9.11,7.66-19.49,7.49-30.26C160.78,59.54,160.3,55,160.25,54.75Z"/></svg>