<svg width="520" height="521" xmlns="http://www.w3.org/2000/svg" xmlns:xlink="http://www.w3.org/1999/xlink" xml:space="preserve" overflow="hidden"><defs><clipPath id="clip0"><rect x="1915" y="473" width="520" height="521"/></clipPath></defs><g clip-path="url(#clip0)" transform="translate(-1915 -473)"><path d="M2172.97 485C2170.49 487.034 2168.16 489.251 2166.01 491.632 2140.25 517.167 2118.99 545.454 2108.88 580.572 2103.55 597.384 2103.71 615.459 2109.35 632.172 2116.32 651.8 2131.82 667.196 2151.48 674.022 2169.57 680.565 2189.6 678.982 2206.45 669.678 2236.26 654.457 2249.9 619.935 2243.41 587.967 2236.19 552.484 2215.73 524.297 2190.09 499.459 2185.42 494.949 2173.8 485.564 2172.97 485Z" stroke="#FFCF0E" stroke-width="18.2604" stroke-miterlimit="8" fill="none" fill-rule="evenodd"/><path d="M1998.38 559.756C1998.04 562.904 1997.92 566.072 1998.05 569.236 1997.85 605.373 2002.79 640.32 2020.48 672.162 2028.58 687.77 2041.47 700.395 2057.26 708.2 2076.1 717.267 2098.06 717.267 2116.9 708.2 2134.32 700.048 2147.38 684.81 2152.72 666.382 2162.96 634.738 2148.32 600.682 2121.15 582.779 2090.96 562.96 2056.57 557.477 2020.88 558.038 2014.22 558.005 1999.34 559.591 1998.38 559.756Z" stroke="#FFCF0E" stroke-width="18.2604" stroke-miterlimit="8" fill="none" fill-rule="evenodd"/><path d="M1927 735.967C1929.03 738.45 1931.25 740.777 1933.63 742.928 1959.16 768.72 1987.43 790.002 2022.54 800.113 2039.34 805.45 2057.41 805.288 2074.12 799.649 2093.74 792.714 2109.15 777.252 2116.02 757.614 2122.56 739.501 2120.98 719.448 2111.68 702.584 2096.46 672.749 2061.96 659.091 2030 665.588 1994.53 672.815 1966.35 693.302 1941.52 718.961 1936.98 723.535 1927.56 735.171 1927 735.967Z" stroke="#FFCF0E" stroke-width="18.2604" stroke-miterlimit="8" fill="none" fill-rule="evenodd"/><path d="M2000.87 910.618C2004.03 910.964 2007.22 911.076 2010.4 910.95 2046.74 911.149 2081.89 906.208 2113.92 888.499 2129.61 880.391 2142.31 867.497 2150.16 851.688 2159.28 832.832 2159.28 810.852 2150.16 791.995 2141.91 774.592 2126.55 761.575 2108 756.279 2076.18 746.032 2041.93 760.69 2023.92 787.883 2003.99 818.095 1998.47 852.517 1999.04 888.234 1999.1 894.734 2000.7 909.657 2000.87 910.618Z" stroke="#FFCF0E" stroke-width="18.2604" stroke-miterlimit="8" fill="none" fill-rule="evenodd"/><path d="M2177.55 982C2180.04 979.969 2182.39 977.752 2184.55 975.374 2210.5 949.861 2231.92 921.598 2242.09 886.51 2247.46 869.715 2247.3 851.654 2241.62 834.955 2234.64 815.28 2219.03 799.83 2199.19 792.975 2180.97 786.438 2160.79 788.018 2143.82 797.315 2113.8 812.523 2100.06 847.015 2106.6 878.956 2113.87 914.408 2134.48 942.572 2160.3 967.388 2165 971.994 2176.75 981.404 2177.55 982Z" stroke="#FFCF0E" stroke-width="18.2604" stroke-miterlimit="8" fill="none" fill-rule="evenodd"/><path d="M2352.62 908.135C2352.96 904.969 2353.08 901.783 2352.95 898.6 2353.15 862.256 2348.21 827.109 2330.52 795.084 2322.42 779.387 2309.53 766.69 2293.74 758.839 2274.9 749.72 2252.94 749.72 2234.1 758.839 2216.65 767.058 2203.6 782.426 2198.28 800.997 2188.04 832.823 2202.68 867.073 2229.85 885.079 2260.04 905.012 2294.43 910.526 2330.12 909.962 2336.75 909.862 2351.66 908.301 2352.62 908.135Z" stroke="#FFCF0E" stroke-width="18.2604" stroke-miterlimit="8" fill="none" fill-rule="evenodd"/><path d="M2424 731.416C2421.96 728.916 2419.73 726.573 2417.33 724.407 2391.67 698.442 2363.23 677.016 2327.93 666.837 2311.11 661.545 2293.04 661.732 2276.33 667.371 2256.52 674.315 2240.94 689.915 2234 709.756 2227.42 727.992 2229.01 748.179 2238.37 765.157 2253.67 795.193 2288.37 808.943 2320.5 802.402 2356.17 795.126 2384.5 774.501 2409.47 748.67 2414 744.131 2423.57 732.25 2424 731.416Z" stroke="#FFCF0E" stroke-width="18.2604" stroke-miterlimit="8" fill="none" fill-rule="evenodd"/><path d="M2349.13 556.381C2345.97 556.035 2342.78 555.924 2339.6 556.05 2303.26 555.85 2268.11 560.793 2236.08 578.505 2220.39 586.615 2207.69 599.513 2199.84 615.324 2190.72 634.184 2190.72 656.169 2199.84 675.029 2208.1 692.427 2223.46 705.43 2242 710.72 2273.82 720.97 2308.07 706.309 2326.08 679.109 2346.01 648.892 2351.53 614.461 2350.96 578.737 2350.86 572.236 2349.27 557.343 2349.13 556.381Z" stroke="#FFCF0E" stroke-width="18.2604" stroke-miterlimit="8" fill="none" fill-rule="evenodd"/></g></svg>