<?xml version="1.0" standalone="no"?>
<!DOCTYPE svg PUBLIC "-//W3C//DTD SVG 20010904//EN"
 "http://www.w3.org/TR/2001/REC-SVG-20010904/DTD/svg10.dtd">
<svg version="1.0" xmlns="http://www.w3.org/2000/svg"
 width="270.000000pt" height="270.000000pt" viewBox="0 0 270.000000 270.000000"
 preserveAspectRatio="xMidYMid meet">
<metadata>
Created by potrace 1.14, written by Peter Selinger 2001-2017
</metadata>
<g transform="translate(0.000000,270.000000) scale(0.100000,-0.100000)"
fill="#000000" stroke="none">
<path d="M857 2174 c-1 -1 -26 -5 -55 -8 -30 -4 -63 -11 -73 -17 -10 -5 -19
-7 -19 -4 0 5 -84 -25 -130 -47 -43 -21 -153 -94 -194 -129 -64 -55 -154 -176
-193 -258 -59 -124 -81 -225 -78 -366 3 -130 6 -148 36 -244 48 -150 128 -269
254 -377 49 -42 175 -124 190 -124 2 0 16 -5 32 -12 15 -6 33 -12 38 -13 6 -2
35 -10 65 -18 179 -51 397 -30 565 56 45 22 53 24 75 11 43 -24 153 -63 217
-78 89 -20 321 -14 383 11 8 3 23 8 32 9 20 4 161 66 168 74 3 3 25 18 50 34
75 48 186 166 240 256 51 84 96 207 108 290 8 59 8 202 0 265 -12 96 -89 288
-135 333 -7 7 -13 18 -13 23 0 14 -141 152 -190 185 -248 169 -554 196 -820
73 l-67 -31 -49 25 c-41 20 -109 47 -136 53 -5 1 -10 3 -13 4 -29 14 -275 35
-288 24z"/>
</g>
</svg>
